# xmcd
#
# Track frame offsets:
#	300
#	17589
#	39501
#	56303
#	74695
#	103085
#	119786
#	140877
#	160135
#	178797
#	199850
#	218494
#
# Disc length: 3145 seconds
#
# Revision: 1
# Processed by: cddbd v1.5.2PL0 Copyright (c) Steve Scherf et al.
# Submitted via: audiograbber 1.83.01
#
DISCID=b60c450c
DTITLE=Various Artist - Street Beats 701 CD1
DYEAR=1900
DGENRE=R&B
TTITLE0=Mya - My Love Is Like... Wo Pt.2 (Allstar Remix)
TTITLE1=Obie Trice - Shit Hits The Fan Ft Eminem and Dr Dre
TTITLE2=Nas Ft Pharrell - Nas' Angels The Flyest
TTITLE3=Kaisha Jones - Don't Want None
TTITLE4=Erykah Badu - Danger
TTITLE5=Loon Ft Kelis - How You Want That
TTITLE6=Incognito - Can't Get You Out Of My Head (Venom'z Ghetto Soul Remix)
TTITLE7=Baby Ft Toni Braxton - Baby You Can Do It
TTITLE8=Kendra Ross - I'm So Okay
TTITLE9=Baby Blak - Wake Up
TTITLE10=Detin8 Ft Sabrina Roberts - Kickin' Back
TTITLE11=Ward 21 - Reggae Pledge
EXTD=
EXTT0=
EXTT1=
EXTT2=
EXTT3=
EXTT4=
EXTT5=
EXTT6=
EXTT7=
EXTT8=
EXTT9=
EXTT10=
EXTT11=
PLAYORDER=
